Coordinates
version=1
nRows=34
nColumns=38
inDegrees=no

Units are S.I. units (second, meters, Newtons, ...)
If the header above contains a line with 'inDegrees', this indicates whether rotational values are in degrees (yes) or radians (no).

endheader
time	pelvis_tilt	pelvis_list	pelvis_rotation	pelvis_tx	pelvis_ty	pelvis_tz	hip_flexion_r	hip_adduction_r	hip_rotation_r	knee_angle_r	ankle_angle_r	subtalar_angle_r	mtp_angle_r	hip_flexion_l	hip_adduction_l	hip_rotation_l	knee_angle_l	ankle_angle_l	subtalar_angle_l	mtp_angle_l	lumbar_extension	lumbar_bending	lumbar_rotation	arm_flex_r	arm_add_r	arm_rot_r	elbow_flex_r	pro_sup_r	wrist_flex_r	wrist_dev_r	arm_flex_l	arm_add_l	arm_rot_l	elbow_flex_l	pro_sup_l	wrist_flex_l	wrist_dev_l
1.37	-2.71574	1.2758	-1.83994	0.77635	0.79908	0.909293	-0.443492	-0.196108	-0.674052	0.549413	0.0537761	0	0	0.0246017	0.192449	-0.00761272	0.0934504	-0.281028	0	0	-0.234881	-0.0433923	0.167632	-0.300756	-0.701452	-0.291434	1.72695	0.636151	0	0	0.770944	-0.570942	1.03673	1.18827	0.481008	0	0
1.38	-2.70655	1.27352	-1.85068	0.77486	0.809656	0.908553	-0.451392	-0.202642	-0.665305	0.559669	0.0490661	0	0	0.0190354	0.200204	-6.81946e-05	0.115369	-0.273352	0	0	-0.235101	-0.0479841	0.170071	-0.305046	-0.700705	-0.295039	1.72904	0.635624	0	0	0.773125	-0.570005	1.04033	1.18787	0.479461	0	0
1.39	-2.69575	1.27117	-1.86303	0.773279	0.820434	0.908015	-0.458262	-0.210247	-0.65473	0.571588	0.0424987	0	0	0.0115903	0.208296	0.00216739	0.124249	-0.273523	0	0	-0.234264	-0.0532566	0.172412	-0.309336	-0.699022	-0.297964	1.73016	0.63349	0	0	0.775039	-0.568939	1.04496	1.18655	0.478314	0	0
1.4	-2.68404	1.26927	-1.87659	0.771685	0.831367	0.907703	-0.462954	-0.218835	-0.640752	0.586236	0.0314389	0	0	0.00216427	0.21495	-0.00119013	0.121801	-0.286913	0	0	-0.232283	-0.0589279	0.17504	-0.313871	-0.69699	-0.300561	1.73024	0.632113	0	0	0.776501	-0.567836	1.05007	1.18489	0.476367	0	0
1.41	-2.6715	1.26919	-1.89168	0.770008	0.842582	0.907454	-0.463695	-0.228021	-0.622999	0.603271	0.0153118	0	0	-0.0082075	0.220303	-0.0101533	0.1105	-0.314979	0	0	-0.228345	-0.0640952	0.178599	-0.320683	-0.69468	-0.304054	1.73133	0.634935	0	0	0.775958	-0.566945	1.05342	1.18432	0.474523	0	0
1.42	-2.66142	1.27003	-1.90462	0.768175	0.853881	0.907291	-0.461226	-0.237651	-0.601645	0.623818	-0.00647093	0	0	-0.0187584	0.224281	-0.0223257	0.0974526	-0.349354	0	0	-0.222838	-0.0679969	0.181794	-0.325999	-0.690058	-0.307199	1.73124	0.64234	0	0	0.773111	-0.565875	1.05458	1.18318	0.475574	0	0
1.43	-2.65478	1.27084	-1.91381	0.766168	0.865025	0.907333	-0.456321	-0.24767	-0.575403	0.647614	-0.0457257	0	0	-0.027696	0.227049	-0.0332283	0.0918877	-0.376029	0	0	-0.217301	-0.0706059	0.183619	-0.329411	-0.689701	-0.306114	1.72932	0.641036	0	0	0.769374	-0.565176	1.05548	1.18201	0.472796	0	0
1.44	-2.64512	1.27403	-1.92507	0.76399	0.875954	0.90749	-0.446007	-0.258831	-0.537574	0.675558	-0.0772692	0	0	-0.0298368	0.229531	-0.0355771	0.100289	-0.382307	0	0	-0.209932	-0.0727922	0.1845	-0.332714	-0.687201	-0.306732	1.72694	0.645894	0	0	0.763752	-0.563855	1.05351	1.18034	0.474764	0	0
1.45	-2.63528	1.27711	-1.93653	0.761824	0.886477	0.908067	-0.433996	-0.270617	-0.480496	0.70198	-0.112992	0	0	-0.0299007	0.231965	-0.03043	0.116101	-0.382501	0	0	-0.203826	-0.0747531	0.185142	-0.335111	-0.68455	-0.307023	1.7244	0.649654	0	0	0.758056	-0.562002	1.0505	1.17801	0.477279	0	0
1.46	-2.62546	1.27803	-1.94687	0.75976	0.896742	0.90904	-0.416352	-0.28577	-0.4426	0.741544	-0.16117	0	0	-0.0316447	0.235307	-0.0190359	0.135351	-0.375144	0	0	-0.200516	-0.0775918	0.18485	-0.337367	-0.681712	-0.306997	1.72219	0.653146	0	0	0.754485	-0.560278	1.04921	1.1753	0.480541	0	0
1.47	-2.61474	1.27728	-1.95772	0.757828	0.90673	0.910204	-0.394461	-0.302896	-0.413345	0.788942	-0.215731	0	0	-0.0348806	0.24012	-0.00574233	0.155351	-0.361709	0	0	-0.199429	-0.0815493	0.184406	-0.339414	-0.678937	-0.307414	1.7203	0.654146	0	0	0.753365	-0.558791	1.05026	1.17251	0.483862	0	0
1.48	-2.60432	1.27426	-1.96912	0.756096	0.916435	0.911514	-0.369939	-0.321516	-0.385768	0.841626	-0.249663	0	0	-0.0430739	0.245976	0.0048137	0.167059	-0.356025	0	0	-0.201453	-0.0866816	0.184649	-0.341101	-0.677331	-0.307881	1.71916	0.652637	0	0	0.754056	-0.558056	1.05234	1.17091	0.485222	0	0
1.49	-2.59098	1.27269	-1.98276	0.754328	0.925972	0.912616	-0.340145	-0.340294	-0.361687	0.894862	-0.339734	0	0	-0.050133	0.252488	0.0171363	0.179951	-0.336849	0	0	-0.201768	-0.0919665	0.184324	-0.343003	-0.676641	-0.30731	1.71837	0.65218	0	0	0.754997	-0.557663	1.0548	1.16968	0.484664	0	0
1.5	-2.57741	1.27072	-1.99841	0.752771	0.935429	0.913599	-0.307204	-0.358719	-0.336928	0.950231	-0.400038	0	0	-0.0602937	0.258985	0.0228999	0.184957	-0.327139	0	0	-0.202332	-0.097679	0.185366	-0.344521	-0.677301	-0.305797	1.71831	0.648083	0	0	0.755761	-0.557999	1.05655	1.16972	0.482223	0	0
1.51	-2.56553	1.26811	-2.01325	0.751333	0.94493	0.914496	-0.272374	-0.376939	-0.321443	1.00836	-0.442854	0	0	-0.0739092	0.264898	0.0242284	0.183938	-0.31929	0	0	-0.203288	-0.103238	0.186726	-0.345313	-0.677354	-0.304441	1.71886	0.642938	0	0	0.756236	-0.559419	1.05752	1.17101	0.480702	0	0
1.52	-2.55702	1.26716	-2.02585	0.75008	0.954189	0.915252	-0.235953	-0.391146	-0.288853	1.06108	-0.469466	0	0	-0.0863393	0.268973	0.0243809	0.182526	-0.308686	0	0	-0.203207	-0.107061	0.188406	-0.344237	-0.676949	-0.302896	1.71901	0.642261	0	0	0.755562	-0.561279	1.05631	1.17251	0.48252	0	0
1.53	-2.55699	1.25911	-2.02693	0.748633	0.963766	0.91656	-0.205009	-0.411777	-0.322141	1.1184	-0.536417	0	0	-0.111466	0.273129	0.0210984	0.169965	-0.313801	0	0	-0.210679	-0.111294	0.186002	-0.343449	-0.681686	-0.297948	1.72059	0.634291	0	0	0.757314	-0.56561	1.05861	1.17671	0.477341	0	0
1.54	-2.55999	1.25495	-2.02751	0.747541	0.972938	0.917823	-0.172016	-0.424942	-0.316132	1.16621	-0.562179	0	0	-0.131131	0.274571	0.0179781	0.160268	-0.312993	0	0	-0.215243	-0.112979	0.185699	-0.340583	-0.683804	-0.294002	1.72071	0.635166	0	0	0.75651	-0.568655	1.05679	1.17905	0.477344	0	0
1.55	-2.56464	1.2575	-2.03125	0.747114	0.98139	0.918886	-0.137715	-0.422052	-0.230729	1.20183	-0.555298	0	0	-0.141696	0.272432	0.0151036	0.15242	-0.313248	0	0	-0.214451	-0.111776	0.190044	-0.335182	-0.684667	-0.289365	1.71884	0.634573	0	0	0.753772	-0.569791	1.05192	1.17872	0.477896	0	0
1.56	-2.57434	1.25461	-2.02557	0.746201	0.990207	0.920484	-0.10738	-0.427889	-0.215781	1.24169	-0.548337	0	0	-0.162492	0.270671	0.0138263	0.138296	-0.317209	0	0	-0.21904	-0.110546	0.190249	-0.331183	-0.685478	-0.285787	1.71815	0.631518	0	0	0.752126	-0.571017	1.0488	1.17857	0.476895	0	0
1.57	-2.58885	1.24481	-2.00913	0.744563	0.999644	0.92267	-0.0823518	-0.448006	-0.287529	1.28536	-0.537178	0	0	-0.196141	0.269698	0.0136461	0.11728	-0.324179	0	0	-0.229917	-0.109482	0.184873	-0.3295	-0.686831	-0.2834	1.71897	0.627561	0	0	0.751519	-0.572815	1.04776	1.17936	0.475525	0	0
1.58	-2.60109	1.25048	-2.00475	0.74428	1.00785	0.923884	-0.052088	-0.433413	-0.192066	1.30754	-0.487392	0	0	-0.207652	0.263432	0.0130592	0.104801	-0.326443	0	0	-0.226715	-0.104239	0.190158	-0.324811	-0.687514	-0.279134	1.71603	0.626839	0	0	0.748417	-0.571143	1.04277	1.17553	0.477	0	0
1.59	-2.61709	1.24973	-1.98968	0.743175	1.01658	0.925528	-0.0270449	-0.432267	-0.182401	1.33111	-0.467391	0	0	-0.229835	0.258858	0.0155269	0.0867977	-0.331739	0	0	-0.229432	-0.0991408	0.189372	-0.322995	-0.688597	-0.276939	1.71483	0.624098	0	0	0.747582	-0.569886	1.04163	1.17296	0.476581	0	0
1.6	-2.63401	1.24318	-1.96712	0.741243	1.02574	0.92753	-0.00659145	-0.444377	-0.249287	1.35591	-0.459483	0	0	-0.261105	0.25554	0.0200741	0.0657041	-0.336066	0	0	-0.237312	-0.094504	0.182702	-0.323565	-0.690076	-0.276077	1.71516	0.622995	0	0	0.747927	-0.569105	1.04217	1.17175	0.475957	0	0
1.61	-2.64484	1.25141	-1.95958	0.740644	1.03372	0.928431	0.0230511	-0.425518	-0.16561	1.36274	-0.429143	0	0	-0.270285	0.248924	0.0249762	0.0540233	-0.330492	0	0	-0.231537	-0.0880961	0.184886	-0.31964	-0.689729	-0.272958	1.7112	0.629882	0	0	0.745304	-0.566724	1.03752	1.16792	0.479426	0	0
1.62	-2.65568	1.25174	-1.94555	0.739229	1.04222	0.929768	0.0459105	-0.422846	-0.160791	1.3711	-0.414221	0	0	-0.292097	0.244244	0.0299604	0.0331776	-0.338184	0	0	-0.232791	-0.083342	0.180487	-0.317729	-0.694016	-0.268143	1.7092	0.62041	0	0	0.745274	-0.566405	1.03753	1.16699	0.476859	0	0
1.63	-2.69659	1.25973	-1.89942	0.735997	1.05251	0.928935	0.0731712	-0.41966	-0.21367	1.3869	-0.40306	0	0	-0.142126	0.118887	-0.457122	0.454912	-0.213459	0	0	-0.224062	-0.061771	0.177361	-0.328887	-0.704905	-0.271876	1.71503	0.608585	0	0	0.741175	-0.563087	1.03875	1.16785	0.473169	0	0
1.64	-2.665	1.25367	-1.92618	0.736147	1.05911	0.931679	0.0900399	-0.427365	-0.168303	1.37847	-0.375427	0	0	-0.330702	0.236357	0.040684	0	-0.349601	0	0	-0.233204	-0.0770593	0.168293	-0.314108	-0.694792	-0.264616	1.70619	0.6195	0	0	0.745694	-0.567597	1.03692	1.16821	0.474799	0	0
1.65	-2.66682	1.25351	-1.91795	0.734502	1.06745	0.932385	0.107389	-0.438376	-0.187839	1.37445	-0.377595	0	0	-0.3479	0.232749	0.0430157	0	-0.353434	0	0	-0.234904	-0.0747695	0.161451	-0.31401	-0.69541	-0.26514	1.70677	0.619368	0	0	0.747317	-0.56815	1.03737	1.16955	0.474749	0	0
1.66	-2.69565	1.26767	-1.88288	0.731593	1.07692	0.930582	0.135267	-0.434194	-0.206525	1.37434	-0.34766	0	0	-0.175023	0.116416	-0.43756	0.436983	-0.20136	0	0	-0.220578	-0.0554358	0.156876	-0.322921	-0.704169	-0.269031	1.71263	0.61334	0	0	0.743308	-0.56615	1.03686	1.17173	0.471579	0	0
1.67	-2.67262	1.25856	-1.90023	0.731445	1.08352	0.933096	0.148907	-0.438151	-0.203186	1.36067	-0.319745	0	0	-0.372577	0.22329	0.0443441	0	-0.302956	0	0	-0.23399	-0.067387	0.148925	-0.312491	-0.697455	-0.265726	1.70749	0.615549	0	0	0.750145	-0.56769	1.03707	1.17027	0.472903	0	0
1.68	-2.70007	1.27374	-1.86686	0.728853	1.09271	0.931132	0.178679	-0.424838	-0.211407	1.35419	-0.298725	0	0	-0.194657	0.112672	-0.427092	0.428633	-0.190739	0	0	-0.219784	-0.0486841	0.144326	-0.320524	-0.703992	-0.271174	1.71408	0.612026	0	0	0.745936	-0.565981	1.03504	1.17255	0.471056	0	0
1.69	-2.6736	1.26587	-1.88707	0.728685	1.09952	0.933295	0.191129	-0.429707	-0.21283	1.33479	-0.284119	0	0	-0.396437	0.214696	0.0584659	0	-0.310417	0	0	-0.231887	-0.060533	0.135632	-0.311098	-0.697625	-0.267772	1.71048	0.614478	0	0	0.751687	-0.568119	1.03438	1.17174	0.473746	0	0
1.7	-2.67445	1.27057	-1.88385	0.72762	1.10769	0.933013	0.214397	-0.423714	-0.217101	1.31913	-0.251828	0	0	-0.40315	0.210817	0.0401508	0	-0.278504	0	0	-0.228748	-0.0571613	0.133272	-0.311476	-0.69807	-0.269549	1.71199	0.612713	0	0	0.752004	-0.566777	1.03278	1.17085	0.476101	0	0
